PathFileType	4	(X/Y/Z)	/Users/itak/Documents/Research/Walk-IL/dataset/trc/00109_00007.trc
DataRate	CameraRate	NumFrames	NumMarkers	Units	OrigDataRate	OrigDataStartFrame	OrigNumFrames
100.000000	100.000000	4	53	mm	100.000000	289	579
Frame#	Time	RPSI			LPSI			L3			STRN			T10			C7			CLAV			RBAK			LBAK			LSHO			LUPA			LAEL			LAOL			LWTS			LWPS			LFRA			LIFD			LHPS			LHTS			RSHO			RUPA			RAEL			RAOL			RWTS			RWPS			RFRA			RIFD			RHTS			RHPS			RBHD			LFHD			RFHD			LBHD			LHIP			RHIP			RASI			LASI			LKNE			LTHI			LANK			LTIP			LTOE			LMT1			LMT5			LHEE			RKNE			RTHI			RANK			RTIP			RTOE			RMT1			RMT5			RHEE			
		X1	Y1	Z1	X2	Y2	Z2	X3	Y3	Z3	X4	Y4	Z4	X5	Y5	Z5	X6	Y6	Z6	X7	Y7	Z7	X8	Y8	Z8	X9	Y9	Z9	X10	Y10	Z10	X11	Y11	Z11	X12	Y12	Z12	X13	Y13	Z13	X14	Y14	Z14	X15	Y15	Z15	X16	Y16	Z16	X17	Y17	Z17	X18	Y18	Z18	X19	Y19	Z19	X20	Y20	Z20	X21	Y21	Z21	X22	Y22	Z22	X23	Y23	Z23	X24	Y24	Z24	X25	Y25	Z25	X26	Y26	Z26	X27	Y27	Z27	X28	Y28	Z28	X29	Y29	Z29	X30	Y30	Z30	X31	Y31	Z31	X32	Y32	Z32	X33	Y33	Z33	X34	Y34	Z34	X35	Y35	Z35	X36	Y36	Z36	X37	Y37	Z37	X38	Y38	Z38	X39	Y39	Z39	X40	Y40	Z40	X41	Y41	Z41	X42	Y42	Z42	X43	Y43	Z43	X44	Y44	Z44	X45	Y45	Z45	X46	Y46	Z46	X47	Y47	Z47	X48	Y48	Z48	X49	Y49	Z49	X50	Y50	Z50	X51	Y51	Z51	X52	Y52	Z52	X53	Y53	Z53	

290	2.89	-122.4187774658203	1110.082153320312	-297.3733520507812	-115.6672744750977	1117.309448242188	-433.0897216796875	-126.1819610595703	1148.260375976562	-366.1363525390625	101.2871856689453	1343.11962890625	-361.1083679199219	-148.4966583251953	1299.249267578125	-359.2496643066406	-112.9485397338867	1591.046875	-382.3246765136719	67.21286010742188	1478.35595703125	-370.6949768066406	-167.1075286865234	1411.284301757812	-287.0944519042969	-122.023193359375	1567.4833984375	-482.5723571777344	-36.75700378417969	1550.174072265625	-550.5579833984375	-64.72347259521484	1421.056884765625	-620.7389526367188	-66.78045654296875	1205.082885742188	-649.7073364257812	-126.939323425293	1192.376586914062	-588.8409423828125	37.51226425170898	948.9619750976562	-622.4610595703125	-46.53367614746094	921.42724609375	-642.8770751953125	-52.16954803466797	1088.938232421875	-658.780517578125	50.37719345092773	754.6021728515625	-604.0147094726562	-17.11309242248535	846.8871459960938	-648.4605102539062	52.42411422729492	860.1158447265625	-637.1873168945312	-53.50041580200195	1578.4775390625	-200.3029174804688	-68.66036987304688	1506.988403320312	-133.7744445800781	-70.11685180664062	1211.796020507812	-104.2268600463867	-79.23872375488281	1207.752197265625	-200.2695159912109	96.65591430664062	985.3382568359375	-115.1504898071289	25.91403198242188	960.5986938476562	-82.43765258789062	-39.94262313842773	1140.658935546875	-87.93440246582031	144.0107727050781	794.5050048828125	-125.9113006591797	138.4101867675781	881.4539184570312	-106.9459991455078	73.83925628662109	866.5473022460938	-75.46979522705078	-77.55361175537109	1762.182495117188	-313.4637451171875	74.89152526855469	1828.792236328125	-460.0140075683594	80.20030212402344	1843.3662109375	-331.1853942871094	-92.32277679443359	1750.625244140625	-448.6775512695312	-18.48890495300293	1032.699829101562	-539.8798828125	-2.821273565292358	1005.7783203125	-176.6542053222656	80.4700927734375	1080.140014648438	-224.1561737060547	87.21414184570312	1089.89892578125	-488.5559997558594	112.1662673950195	543.0864868164062	-503.5516662597656	54.56990814208984	676.8772583007812	-536.4160766601562	135.7636871337891	29.83683395385742	-478.0426330566406	82.37458038330078	280.9479370117188	-521.2591552734375	362.6517028808594	49.81731414794922	-418.6481628417969	283.9024047851562	54.19618606567383	-384.5021362304688	262.0227355957031	34.57050704956055	-497.4817199707031	65.30213928222656	35.0493278503418	-417.8982543945312	-41.12404251098633	509.4442138671875	-226.3412170410156	5.449803352355957	792.318115234375	-196.6410369873047	-382.8401794433594	97.87631988525391	-207.254638671875	-124.9796600341797	395.1746215820312	-206.5839080810547	-176.4990844726562	39.22148132324219	-290.7860717773438	-238.7277526855469	44.83372116088867	-325.8297424316406	-258.9928588867188	46.10159301757812	-206.9235229492188	-437.4436950683594	132.1237640380859	-246.861328125	
291	2.9	-132.8235473632812	1108.689819335938	-296.1300659179688	-126.0661315917969	1115.9306640625	-431.9424438476562	-136.4147491455078	1147.367553710938	-364.8529357910156	92.13437652587891	1341.10205078125	-359.1934509277344	-158.125244140625	1298.541259765625	-357.6875	-120.6096572875977	1590.154296875	-380.325927734375	58.82475280761719	1476.493774414062	-368.72265625	-175.8418426513672	1410.649291992188	-285.126708984375	-129.7232971191406	1566.743774414062	-480.6455383300781	-44.49851989746094	1548.876831054688	-548.5635375976562	-72.94648742675781	1419.916259765625	-618.7023315429688	-76.01715850830078	1204.036010742188	-647.9600830078125	-136.0941925048828	1191.451538085938	-586.9482421875	27.63804626464844	947.6455078125	-621.23193359375	-56.54682922363281	920.3076171875	-641.461181640625	-61.82833480834961	1087.842651367188	-657.1668701171875	40.07665252685547	753.2470703125	-602.9590454101562	-27.31496238708496	845.7098388671875	-647.15283203125	42.31312942504883	858.7973022460938	-636.045166015625	-61.15940856933594	1577.17138671875	-198.2735290527344	-76.34078216552734	1505.662109375	-131.7679290771484	-76.88632202148438	1210.326416015625	-101.9984283447266	-86.59886169433594	1206.15576171875	-197.9784393310547	91.85101318359375	985.4302368164062	-113.7723770141602	21.53852844238281	959.9235229492188	-80.80728912353516	-46.09103393554688	1139.341186523438	-85.88734436035156	141.3174591064453	795.2207641601562	-124.6186370849609	134.7556762695312	882.0393676757812	-105.6653747558594	70.41329193115234	866.4057006835938	-73.98760986328125	-85.19582366943359	1760.244750976562	-310.9635620117188	67.11677551269531	1827.413208007812	-457.9580078125	72.510009765625	1841.905883789062	-329.0526733398438	-100.0098648071289	1748.905395507812	-446.3549194335938	-28.57058715820312	1031.300415039062	-538.60546875	-13.48262596130371	1004.195373535156	-175.3956756591797	70.00782012939453	1078.202270507812	-222.4211578369141	76.88560485839844	1088.28125	-486.6819152832031	106.2078475952148	542.8697509765625	-502.7953186035156	47.42074203491211	676.21484375	-535.7068481445312	135.4157562255859	29.47538185119629	-478.3409118652344	79.24936676025391	280.721435546875	-521.2754516601562	361.985107421875	53.68971252441406	-420.3050231933594	283.4321594238281	56.91704177856445	-385.7314147949219	261.3970336914062	34.77606582641602	-497.9170532226562	65.12928771972656	34.71840667724609	-417.8818969726562	-52.83298492431641	508.3244018554688	-227.4801177978516	-5.422361850738525	790.9385375976562	-195.9077606201172	-387.2042236328125	91.12252807617188	-210.1961975097656	-134.9798889160156	392.5871276855469	-208.2387542724609	-179.0085906982422	38.2447509765625	-292.2861633300781	-241.1227722167969	41.10225296020508	-327.32373046875	-261.7439575195312	43.69966125488281	-208.4967346191406	-442.6431579589844	123.8735275268555	-250.1641998291016	
292	2.91	-143.5329895019531	1107.349487304688	-294.8555603027344	-136.8147430419922	1114.541137695312	-430.7634582519531	-146.9039764404297	1146.583984375	-363.5292053222656	82.78457641601562	1339.131103515625	-357.2590942382812	-168.0104827880859	1297.966918945312	-356.1317443847656	-128.3096618652344	1589.363403320312	-378.3058471679688	50.33119964599609	1474.702270507812	-366.7325134277344	-184.75146484375	1410.143798828125	-283.172607421875	-137.4773101806641	1566.113891601562	-478.7036437988281	-52.28891372680664	1547.642944335938	-546.5472412109375	-81.17546081542969	1418.81884765625	-616.6265869140625	-85.18586730957031	1203.024291992188	-646.1393432617188	-145.2112426757812	1190.559936523438	-585.0022583007812	17.75394821166992	946.3461303710938	-619.9436645507812	-66.58258056640625	919.233154296875	-640.001220703125	-71.42003631591797	1086.787231445312	-655.492919921875	29.68431091308594	751.906982421875	-601.898193359375	-37.55472946166992	844.5697631835938	-645.8265991210938	32.15988159179688	857.4888916015625	-634.8601684570312	-68.91252899169922	1575.903930664062	-196.2089080810547	-84.14572143554688	1504.369384765625	-129.7332611083984	-83.83274841308594	1208.888549804688	-99.72594451904297	-94.15461730957031	1204.5791015625	-195.6425628662109	86.8206787109375	985.55908203125	-112.3863067626953	16.94378280639648	959.2989501953125	-79.13852691650391	-52.42388534545898	1138.054443359375	-83.80066680908203	138.3743133544922	795.9887084960938	-123.3319702148438	130.8592376708984	882.6737670898438	-104.3930130004883	66.78726959228516	866.3338623046875	-72.48288726806641	-92.82869720458984	1758.34716796875	-308.4004211425781	59.35060501098633	1826.025390625	-455.816650390625	64.86744689941406	1840.466064453125	-326.8595275878906	-107.6652069091797	1747.230102539062	-443.9788208007812	-38.98871612548828	1029.860595703125	-537.313232421875	-24.27524757385254	1002.791381835938	-174.1598052978516	59.37751770019531	1076.384887695312	-220.63525390625	66.24227142333984	1086.737915039062	-484.8042602539062	100.1791839599609	542.720458984375	-502.001953125	40.11362075805664	675.6094360351562	-534.959716796875	134.9847412109375	29.10710716247559	-478.6836242675781	75.90053558349609	280.5717468261719	-521.286865234375	361.0419311523438	58.34683227539062	-422.2882995605469	282.8004760742188	60.13771438598633	-387.2026977539062	260.5908203125	35.20257568359375	-498.5058288574219	64.90409088134766	34.25891876220703	-417.8508911132812	-64.16545867919922	507.3448486328125	-228.4093627929688	-16.40865707397461	789.5711669921875	-194.9279327392578	-391.2857666015625	84.93284606933594	-213.4594268798828	-144.7124328613281	390.2778930664062	-209.7735748291016	-180.6867218017578	37.86315155029297	-293.1341857910156	-242.6917572021484	38.25067520141602	-328.4656982421875	-264.1716003417969	42.14934158325195	-209.8639068603516	-447.4884338378906	115.9439315795898	-254.0903015136719	
293	2.92	-154.5092010498047	1106.102294921875	-293.5677185058594	-147.8840637207031	1113.171875	-429.5645446777344	-157.6338500976562	1145.941528320312	-362.1844482421875	73.24779510498047	1337.259643554688	-355.3340759277344	-178.1256408691406	1297.550048828125	-354.5906372070312	-136.0618743896484	1588.695678710938	-376.2708129882812	41.71786880493164	1473.023315429688	-364.7343139648438	-193.8148803710938	1409.782470703125	-281.2406005859375	-145.2882385253906	1565.622314453125	-476.7504577636719	-60.14332580566406	1546.516479492188	-544.5208740234375	-89.41384124755859	1417.809326171875	-614.531494140625	-94.30124664306641	1202.084228515625	-644.250732421875	-154.2900543212891	1189.7373046875	-583.0044555664062	7.851248741149902	945.1019287109375	-618.5980224609375	-76.64241790771484	918.243408203125	-638.499755859375	-80.95445251464844	1085.812866210938	-653.7650756835938	19.20511054992676	750.6212158203125	-600.834228515625	-47.83113861083984	843.5076904296875	-644.4842529296875	21.95967674255371	856.2306518554688	-633.6375122070312	-76.76873779296875	1574.70263671875	-194.1202392578125	-92.07823944091797	1503.13720703125	-127.6818389892578	-90.96835327148438	1207.512817382812	-97.42757415771484	-101.8988037109375	1203.053833007812	-193.2848510742188	81.54306793212891	985.7412719726562	-111.0000305175781	12.10336112976074	958.75	-77.433837890625	-58.95848083496094	1136.829467773438	-81.69184875488281	135.1265869140625	796.811767578125	-122.0536651611328	126.688591003418	883.3676147460938	-103.1335601806641	62.91175079345703	866.35302734375	-70.958251953125	-100.4321517944336	1756.554077148438	-305.8017883300781	51.5764045715332	1824.651733398438	-453.584716796875	57.27732467651367	1839.07470703125	-324.6142272949219	-115.2993392944336	1745.643432617188	-441.5496215820312	-49.729736328125	1028.400756835938	-536.018310546875	-35.19715881347656	1001.630981445312	-172.9440307617188	48.60623550415039	1074.749267578125	-218.8333740234375	55.28858947753906	1085.299438476562	-482.950927734375	94.10903167724609	542.6740112304688	-501.1816711425781	32.6517448425293	675.0720825195312	-534.1558227539062	134.4698028564453	28.7744255065918	-479.0464172363281	72.29890441894531	280.5027160644531	-521.2509765625	359.7698974609375	63.71426391601562	-424.5627746582031	281.9760131835938	63.82339096069336	-388.8760375976562	259.578125	35.94366073608398	-499.2513732910156	64.62657165527344	33.6405143737793	-417.7941589355469	-75.15164947509766	506.5708312988281	-229.0178833007812	-27.46884727478027	788.3131103515625	-193.7053375244141	-395.0883178710938	79.32021331787109	-216.9980316162109	-154.2070465087891	388.3310241699219	-211.0737457275391	-181.697021484375	37.87982559204102	-293.458984375	-243.6426544189453	36.15187072753906	-329.3415832519531	-266.3984680175781	41.26956558227539	-211.0841217041016	-451.9276428222656	108.4475173950195	-258.5292358398438	
